# xmcd
#
# Track frame offsets:
#	150
#	13700
#	28977
#	45227
#	53405
#	66447
#	80087
#	93879
#	106865
#	123502
#	142470
#	157577
#	172617
#	187920
#	206282
#	221642
#	240187
#	264620
#	279542
#	295302
#	310592
#	325917
#
# Disc length: 4364
#
# Revision: 2
# Processed by: cddbd v1.5.1PL0 Copyright (c) Steve Scherf et al.
# Submitted via: EasyCDDAExtractor 6.2.0.3
# Normalized: r1:DSETVAR1
#
DISCID=2a110a16
DTITLE=Various Artist - Stony Plain 25 Years Disk 2
DYEAR=1900
DGENRE=
TTITLE0=Rosco Gordon - Just A Little Bit
TTITLE1=Duke Robillard - Don't Leave Me Baby
TTITLE2=Lowell Fulson w/ Power Blues Band - Reconsider Baby
TTITLE3=King Biscuit Boy - Going To The River
TTITLE4=Amos Garret - Bert's Boogie
TTITLE5=Long John Baldry - Linin' Track
TTITLE6=Billy Boy Aronold - Let's Work It Out
TTITLE7=David Wilcox - I Need A Vice
TTITLE8=Jiommy Witherspoon - Mean Ol Frisco
TTITLE9=Jim Byrnes - No Special Rider
TTITLE10=Jay McShann - Say Forward, I'll March
TTITLE11=Big Dave McLean and Colin James - Cakewalk Into Town
TTITLE12=Maria Muldaur - Grasshoppers In My Pillow
TTITLE13=Professor Longhair - Doin' It
TTITLE14=Downchild Blues Band - It's Been So Long
TTITLE15=Rockin Highliners - Sassy Sally
TTITLE16=Rita Chiarelli - Tupelo
TTITLE17=Dutch Mason - I Must Be Crazy
TTITLE18=Kristi Johnston - If I Aint Got It
TTITLE19=Sonny Rhodes - Blues On My Birthday
TTITLE20=Ellen Mcllwaine - Born Under A Bad Sign
TTITLE21=Walter Horton - Turkey In The Straw
EXTD=
EXTT0=
EXTT1=
EXTT2=
EXTT3=
EXTT4=
EXTT5=
EXTT6=
EXTT7=
EXTT8=
EXTT9=
EXTT10=
EXTT11=
EXTT12=
EXTT13=
EXTT14=
EXTT15=
EXTT16=
EXTT17=
EXTT18=
EXTT19=
EXTT20=
EXTT21=
PLAYORDER=
